<?xml version="1.0" encoding="UTF-8" standalone="no"?>
<!DOCTYPE svg PUBLIC "-//W3C//DTD SVG 1.1//EN"
 "http://www.w3.org/Graphics/SVG/1.1/DTD/svg11.dtd">
<!-- Generated by graphviz version 2.38.0 (20140413.2041)
 -->
<!-- Title: G Pages: 1 -->
<svg width="348pt" height="347pt"
 viewBox="0.00 0.00 348.19 346.91" xmlns="http://www.w3.org/2000/svg" xmlns:xlink="http://www.w3.org/1999/xlink">
<g id="graph0" class="graph" transform="scale(1 1) rotate(0) translate(4 342.912)">
<title>437816a</title>
<polygon fill="white" stroke="none" points="-4,4 -4,-342.912 344.194,-342.912 344.194,4 -4,4"/>
<!-- commit: 437816a -->
<g id="node1" class="node"><title>commit: 437816a</title>
<ellipse fill="#ff851b" stroke="#ff851b" cx="208.097" cy="-320.912" rx="89.9224" ry="18"/>
<text text-anchor="middle" x="208.097" y="-316.712" font-family="Courier,monospace" font-size="14.00">commit: 437816a</text>
</g>
<!-- commit&#45;tree: e468afd -->
<g id="node2" class="node"><title>commit&#45;tree: e468afd</title>
<ellipse fill="#ffdc00" stroke="#ffdc00" cx="208.097" cy="-248.912" rx="116.492" ry="18"/>
<text text-anchor="middle" x="208.097" y="-244.712" font-family="Courier,monospace" font-size="14.00">commit&#45;tree: e468afd</text>
</g>
<!-- commit: 437816a&#45;&gt;commit&#45;tree: e468afd -->
<g id="edge1" class="edge"><title>commit: 437816a&#45;&gt;commit&#45;tree: e468afd</title>
<path fill="none" stroke="black" d="M208.097,-292.577C208.097,-283.965 208.097,-274.703 208.097,-267.016"/>
<polygon fill="black" stroke="black" points="204.597,-292.608 208.097,-302.608 211.597,-292.608 204.597,-292.608"/>
</g>
<!-- tree: A
2f3f2bf -->
<g id="node3" class="node"><title>tree: A
2f3f2bf</title>
<ellipse fill="#ffdc00" stroke="#ffdc00" cx="149.097" cy="-169.456" rx="52.7969" ry="25.4118"/>
<text text-anchor="middle" x="149.097" y="-172.256" font-family="Courier,monospace" font-size="14.00">tree: A</text>
<text text-anchor="middle" x="149.097" y="-158.256" font-family="Courier,monospace" font-size="14.00">2f3f2bf</text>
</g>
<!-- commit&#45;tree: e468afd&#45;&gt;tree: A
2f3f2bf -->
<g id="edge2" class="edge"><title>commit&#45;tree: e468afd&#45;&gt;tree: A
2f3f2bf</title>
<path fill="none" stroke="black" d="M188.764,-222.531C181.632,-213.167 173.596,-202.618 166.632,-193.476"/>
<polygon fill="black" stroke="black" points="186.159,-224.888 195.003,-230.722 191.728,-220.646 186.159,-224.888"/>
</g>
<!-- file: B -->
<g id="node8" class="node"><title>file: B</title>
<ellipse fill="#2ecc40" stroke="#2ecc40" cx="267.097" cy="-169.456" rx="47.0121" ry="18"/>
<text text-anchor="middle" x="267.097" y="-165.256" font-family="Courier,monospace" font-size="14.00">file: B</text>
</g>
<!-- commit&#45;tree: e468afd&#45;&gt;file: B -->
<g id="edge7" class="edge"><title>commit&#45;tree: e468afd&#45;&gt;file: B</title>
<path fill="none" stroke="black" d="M227.359,-222.624C236.25,-210.953 246.556,-197.422 254.445,-187.066"/>
<polygon fill="black" stroke="black" points="224.466,-220.646 221.191,-230.722 230.035,-224.888 224.466,-220.646"/>
</g>
<!-- file: a -->
<g id="node5" class="node"><title>file: a</title>
<ellipse fill="#2ecc40" stroke="#2ecc40" cx="79.0971" cy="-90" rx="47.0121" ry="18"/>
<text text-anchor="middle" x="79.0971" y="-85.8" font-family="Courier,monospace" font-size="14.00">file: a</text>
</g>
<!-- tree: A
2f3f2bf&#45;&gt;file: a -->
<g id="edge3" class="edge"><title>tree: A
2f3f2bf&#45;&gt;file: a</title>
<path fill="none" stroke="black" d="M121.726,-138.169C112.208,-127.638 101.899,-116.231 93.8034,-107.273"/>
<polygon fill="black" stroke="black" points="119.172,-140.563 128.473,-145.635 124.365,-135.87 119.172,-140.563"/>
</g>
<!-- file: b -->
<g id="node7" class="node"><title>file: b</title>
<ellipse fill="#2ecc40" stroke="#2ecc40" cx="192.097" cy="-90" rx="47.0121" ry="18"/>
<text text-anchor="middle" x="192.097" y="-85.8" font-family="Courier,monospace" font-size="14.00">file: b</text>
</g>
<!-- tree: A
2f3f2bf&#45;&gt;file: b -->
<g id="edge5" class="edge"><title>tree: A
2f3f2bf&#45;&gt;file: b</title>
<path fill="none" stroke="black" d="M167.217,-135.816C172.555,-126.202 178.177,-116.075 182.724,-107.884"/>
<polygon fill="black" stroke="black" points="164.026,-134.354 162.232,-144.796 170.146,-137.751 164.026,-134.354"/>
</g>
<!-- blob: ce01362 -->
<g id="node4" class="node"><title>blob: ce01362</title>
<ellipse fill="#7fdbff" stroke="#7fdbff" cx="79.0971" cy="-18" rx="79.1943" ry="18"/>
<text text-anchor="middle" x="79.0971" y="-13.8" font-family="Courier,monospace" font-size="14.00">blob: ce01362</text>
</g>
<!-- file: a&#45;&gt;blob: ce01362 -->
<g id="edge4" class="edge"><title>file: a&#45;&gt;blob: ce01362</title>
<path fill="none" stroke="black" d="M79.0971,-61.6651C79.0971,-53.0537 79.0971,-43.7913 79.0971,-36.1043"/>
<polygon fill="black" stroke="black" points="75.5972,-61.6966 79.0971,-71.6966 82.5972,-61.6967 75.5972,-61.6966"/>
</g>
<!-- blob: e69de29 -->
<g id="node6" class="node"><title>blob: e69de29</title>
<ellipse fill="#7fdbff" stroke="#7fdbff" cx="261.097" cy="-18" rx="79.1943" ry="18"/>
<text text-anchor="middle" x="261.097" y="-13.8" font-family="Courier,monospace" font-size="14.00">blob: e69de29</text>
</g>
<!-- file: b&#45;&gt;blob: e69de29 -->
<g id="edge6" class="edge"><title>file: b&#45;&gt;blob: e69de29</title>
<path fill="none" stroke="black" d="M215.177,-65.5853C224.853,-55.7696 235.879,-44.5836 244.701,-35.6334"/>
<polygon fill="black" stroke="black" points="212.628,-63.1858 208.101,-72.7646 217.613,-68.0999 212.628,-63.1858"/>
</g>
<!-- file: B&#45;&gt;blob: e69de29 -->
<g id="edge8" class="edge"><title>file: B&#45;&gt;blob: e69de29</title>
<path fill="none" stroke="black" d="M265.993,-140.947C264.767,-110.424 262.827,-62.0985 261.796,-36.4049"/>
<polygon fill="black" stroke="black" points="262.51,-141.46 266.409,-151.311 269.505,-141.179 262.51,-141.46"/>
</g>
</g>
</svg>
