<?xml version="1.0" encoding="UTF-8" standalone="no"?>
<!DOCTYPE svg PUBLIC "-//W3C//DTD SVG 1.1//EN"
 "http://www.w3.org/Graphics/SVG/1.1/DTD/svg11.dtd">
<!-- Generated by graphviz version 2.38.0 (20140413.2041)
 -->
<!-- Title: G Pages: 1 -->
<svg width="348pt" height="332pt"
 viewBox="0.00 0.00 348.19 332.00" xmlns="http://www.w3.org/2000/svg" xmlns:xlink="http://www.w3.org/1999/xlink">
<g id="graph0" class="graph" transform="scale(1 1) rotate(0) translate(4 328)">
<title>G</title>
<polygon fill="white" stroke="none" points="-4,4 -4,-328 344.194,-328 344.194,4 -4,4"/>
<!-- commit: 437816a -->
<g id="node1" class="node"><title>commit: 437816a</title>
<ellipse fill="#ff851b" stroke="#ff851b" cx="210.097" cy="-306" rx="89.9224" ry="18"/>
<text text-anchor="middle" x="210.097" y="-301.8" font-family="Courier,monospace" font-size="14.00">commit: 437816a</text>
</g>
<!-- tree: e468afd -->
<g id="node2" class="node"><title>tree: e468afd</title>
<ellipse fill="#ffdc00" stroke="#ffdc00" cx="210.097" cy="-234" rx="79.1943" ry="18"/>
<text text-anchor="middle" x="210.097" y="-229.8" font-family="Courier,monospace" font-size="14.00">tree: e468afd</text>
</g>
<!-- commit: 437816a&#45;&gt;tree: e468afd -->
<g id="edge1" class="edge"><title>commit: 437816a&#45;&gt;tree: e468afd</title>
<path fill="none" stroke="black" d="M210.097,-277.665C210.097,-269.054 210.097,-259.791 210.097,-252.104"/>
<polygon fill="black" stroke="black" points="206.597,-277.697 210.097,-287.697 213.597,-277.697 206.597,-277.697"/>
</g>
<!-- tree: A -->
<g id="node3" class="node"><title>tree: A</title>
<ellipse fill="#ffdc00" stroke="#ffdc00" cx="154.097" cy="-162" rx="47.0121" ry="18"/>
<text text-anchor="middle" x="154.097" y="-157.8" font-family="Courier,monospace" font-size="14.00">tree: A</text>
</g>
<!-- tree: e468afd&#45;&gt;tree: A -->
<g id="edge2" class="edge"><title>tree: e468afd&#45;&gt;tree: A</title>
<path fill="none" stroke="black" d="M190.117,-208.025C182.479,-198.477 173.971,-187.842 167.143,-179.307"/>
<polygon fill="black" stroke="black" points="187.561,-210.433 196.541,-216.055 193.027,-206.06 187.561,-210.433"/>
</g>
<!-- file: B -->
<g id="node8" class="node"><title>file: B</title>
<ellipse fill="#2ecc40" stroke="#2ecc40" cx="267.097" cy="-162" rx="47.0121" ry="18"/>
<text text-anchor="middle" x="267.097" y="-157.8" font-family="Courier,monospace" font-size="14.00">file: B</text>
</g>
<!-- tree: e468afd&#45;&gt;file: B -->
<g id="edge7" class="edge"><title>tree: e468afd&#45;&gt;file: B</title>
<path fill="none" stroke="black" d="M230.434,-208.025C238.209,-198.477 246.868,-187.842 253.819,-179.307"/>
<polygon fill="black" stroke="black" points="227.495,-206.091 223.895,-216.055 232.924,-210.511 227.495,-206.091"/>
</g>
<!-- file: a -->
<g id="node5" class="node"><title>file: a</title>
<ellipse fill="#2ecc40" stroke="#2ecc40" cx="79.0971" cy="-90" rx="47.0121" ry="18"/>
<text text-anchor="middle" x="79.0971" y="-85.8" font-family="Courier,monospace" font-size="14.00">file: a</text>
</g>
<!-- tree: A&#45;&gt;file: a -->
<g id="edge3" class="edge"><title>tree: A&#45;&gt;file: a</title>
<path fill="none" stroke="black" d="M129.466,-138.011C118.522,-127.796 105.913,-116.028 96.0484,-106.821"/>
<polygon fill="black" stroke="black" points="127.38,-140.851 137.078,-145.116 132.156,-135.734 127.38,-140.851"/>
</g>
<!-- file: b -->
<g id="node7" class="node"><title>file: b</title>
<ellipse fill="#2ecc40" stroke="#2ecc40" cx="192.097" cy="-90" rx="47.0121" ry="18"/>
<text text-anchor="middle" x="192.097" y="-85.8" font-family="Courier,monospace" font-size="14.00">file: b</text>
</g>
<!-- tree: A&#45;&gt;file: b -->
<g id="edge5" class="edge"><title>tree: A&#45;&gt;file: b</title>
<path fill="none" stroke="black" d="M168.21,-135.002C173.15,-125.903 178.561,-115.934 182.983,-107.789"/>
<polygon fill="black" stroke="black" points="164.991,-133.597 163.296,-144.055 171.143,-136.936 164.991,-133.597"/>
</g>
<!-- blob: ce01362 -->
<g id="node4" class="node"><title>blob: ce01362</title>
<ellipse fill="#7fdbff" stroke="#7fdbff" cx="79.0971" cy="-18" rx="79.1943" ry="18"/>
<text text-anchor="middle" x="79.0971" y="-13.8" font-family="Courier,monospace" font-size="14.00">blob: ce01362</text>
</g>
<!-- file: a&#45;&gt;blob: ce01362 -->
<g id="edge4" class="edge"><title>file: a&#45;&gt;blob: ce01362</title>
<path fill="none" stroke="black" d="M79.0971,-61.6651C79.0971,-53.0537 79.0971,-43.7913 79.0971,-36.1043"/>
<polygon fill="black" stroke="black" points="75.5972,-61.6966 79.0971,-71.6966 82.5972,-61.6967 75.5972,-61.6966"/>
</g>
<!-- blob: e69de29 -->
<g id="node6" class="node"><title>blob: e69de29</title>
<ellipse fill="#7fdbff" stroke="#7fdbff" cx="261.097" cy="-18" rx="79.1943" ry="18"/>
<text text-anchor="middle" x="261.097" y="-13.8" font-family="Courier,monospace" font-size="14.00">blob: e69de29</text>
</g>
<!-- file: b&#45;&gt;blob: e69de29 -->
<g id="edge6" class="edge"><title>file: b&#45;&gt;blob: e69de29</title>
<path fill="none" stroke="black" d="M215.177,-65.5853C224.853,-55.7696 235.879,-44.5836 244.701,-35.6334"/>
<polygon fill="black" stroke="black" points="212.628,-63.1858 208.101,-72.7646 217.613,-68.0999 212.628,-63.1858"/>
</g>
<!-- file: B&#45;&gt;blob: e69de29 -->
<g id="edge8" class="edge"><title>file: B&#45;&gt;blob: e69de29</title>
<path fill="none" stroke="black" d="M265.943,-133.679C264.726,-104.888 262.847,-60.4244 261.823,-36.1893"/>
<polygon fill="black" stroke="black" points="262.454,-134.028 266.373,-143.871 269.448,-133.733 262.454,-134.028"/>
</g>
</g>
</svg>
