<?xml version="1.0" encoding="utf-8"?>
<!DOCTYPE svg PUBLIC "-//W3C//DTD SVG 1.1//EN" "http://www.w3.org/Graphics/SVG/1.1/DTD/svg11.dtd">
<svg version="1.1" id="Layer_1" xmlns="http://www.w3.org/2000/svg" xmlns:xlink="http://www.w3.org/1999/xlink" x="0px" y="0px"
	 width="453.771px" height="474.291px" viewBox="0 0 453.771 474.291" enable-background="new 0 0 453.771 474.291"
	 xml:space="preserve">
<g>
	<g>
		<g>
			<path fill="#FFFFFF" stroke="#FFFFFF" stroke-width="0.262" d="M320.819,39.013c0.736-0.589,10.652-8.562,21.869-14.623
				c13.115-7.102,56.998-24.236,56.998-24.236l49.294,52.448c0,0,6.304,6.396,4.246,13.951
				c-2.967,10.773-23.543,79.694-23.543,79.694s-5.023,25.111-16.083,40.335c-20.815,28.634-39.752,53.865-39.752,53.865l0.6,6.347
				c0,0,7.019-5.104,12.171-8.659c5.137-3.554,12.12,2.108,26.063,9.809c13.956,7.697,23.509,27.836,24.244,31.389
				c0.737,3.562-0.737,17.777-4.416,26.661c-3.666,8.882-16.309,26.796-16.309,26.796s12.495,12.435,5.148,30.806
				c-7.346,18.36-26.462,31.38-27.934,32.566c-1.462,1.187-24.688,10.577-35.812,9.764c-4.64-0.339-21.494,14.683-28.635,20.686
				c-9.044,7.583-31.815,21.548-39.173,26.833c-13.877,9.99-51.963,21.485-83.596,20.673c-23.594-0.61-45.567-3.544-54.387-5.322
				c-8.815-1.772-30.851-8.885-41.125-17.769c-10.281-8.882-37.446-36.127-44.055-45.616c-6.617-9.478-25.138-21.983-26.486-23.154
				c-8.625-7.568-22.742-18.927-22.742-18.927c-15.654-14.634-17.274-28.88-17.274-42.668c0-7.138,3.651-11.203,21.557-25.644
				c7.89-6.364,18.738-10.209,25.298-14.928c9.076-6.52,12.969-13.432,16.581-19.447c8.404-13.989,14.682-25.496,25.698-57.484
				c0,0,14.867-31.908,23.667-41.386c8.818-9.478,43.306-27.833,88.086-31.387c44.795-3.552,60.969-4.741,69.762-2.964
				c8.819,1.782,9.397,1.944,9.397,1.944l1.843,0.575l9.386,3.83L320.819,39.013z"/>
		</g>
	</g>
	<g>
		<path fill="#0B1437" d="M330.746,52.364c0.656-0.538,5.944-11.892,16.683-16.677c10.856-4.831,49.428-21.544,49.428-21.544
			l38.028,44.147c0,0,4.554,4.203,2.673,11.07c-2.705,9.794-28.987,93.676-28.987,93.676s-6.55,21.389-17.575,34.685
			c-20.758,24.999-37.557,42.588-37.557,42.588l1.336,38.577c0,0,16.026-20.257,20.692-23.5c4.686-3.234,11.353-9.148,24.04-2.157
			c12.686,7.005,21.367,25.318,22.023,28.551c0.679,3.223-0.656,16.149-3.994,24.225c-3.352,8.09-16.025,28.546-16.025,28.546
			s11.34,11.305,4.677,28.006c-6.681,16.698-28.039,26.934-29.375,28c-1.346,1.08-13.275,4.539-23.395,3.812
			c-4.211-0.312-28.694,19.701-35.201,25.15c-8.23,6.896-28.917,19.594-35.61,24.402c-12.618,9.077-47.239,19.532-76,18.792
			c-21.449-0.555-41.43-3.221-49.439-4.838c-8.021-1.616-28.036-8.082-37.39-16.15c-9.35-8.082-34.051-32.85-40.052-41.472
			c-6.015-8.616-22.856-19.994-24.066-21.053c-7.856-6.883-20.691-17.201-20.691-17.201c-14.219-13.312-24.102-26.076-20.645-38.758
			c1.732-6.327,1.982-15.057,23.343-23.675c21.37-8.617,32.351-21.702,38.088-31.244c7.636-12.707,13.351-23.18,23.358-52.257
			c0,0,16.698-37.69,24.701-46.31c8.021-8.617,39.356-25.305,80.085-28.536c40.726-3.233,55.407-4.31,63.432-2.69
			c8.002,1.617,27.356,10.771,27.356,10.771l1.584,0.844l5.342,2.52L330.746,52.364z"/>
	</g>
	<g>
		<path fill="#EC2135" d="M357.444,279.08c0,0,20.025-21,28.05-24.233c0,0,2.999-1.618,6.338,1.349
			c3.326,2.961,15.357,15.615,18.016,22.08c2.675,6.464,7.021,9.154,2.009,21.546c-5.005,12.381-13.322,25.604-14.693,26.925
			c-2.862,2.746-4.175,4.348-9.36,0.786c0,0,11.035,11.594,11.035,25.601c0,13.996-9.679,21-13.344,23.692
			c-3.677,2.696-13.877,8.057-21.709,9.423c-5.964,1.05-14.011,1.078-14.011,1.078s-44.402,35.007-54.748,41.194
			c-10.344,6.199-28.036,18.59-46.722,22.899c-18.696,4.308-40.063,6.454-66.77,3.761c-14.551-1.47-42.282-6.612-53.636-15.273
			c-7.332-5.606-24.803-20.27-37.15-35.617c-12.35-15.349-19.038-19.11-27.04-26.651c-8.019-7.55-24.704-18.042-29.713-23.968
			c-5.002-5.924-15.025-19.119-14.354-27.199c1.333-16.124,15.35-20.998,18.688-22.614c3.338-1.617,18.042-7.54,23.386-12.391
			c5.337-4.847,16.681-15.084,19.008-20.73c2.345-5.653,7.348-12.382,12.349-25.584c4.582-12.042,17.233-46.84,32.722-67.849
			c0,0,5.999-7.538,16.684-7.538c10.682,0,39.392-1.615,39.392-1.615s15.016-17.777,24.528-22.484c0,0,5.344-3.231,7.678-2.424
			c2.342,0.805-3.674,5.25-3.674,5.25s-14.69,12.248-17.354,17.366c0,0-1.33,2.426,2.663,2.426c4.013,0,40.568-0.672,49.917-0.404
			c9.34,0.27,14.681,3.503,18.021,6.191c0,0,43.936,45.414,59.749,58.701c16.027,13.466,31.463,38.428,31.463,38.428
			C354.696,272.815,355.103,281.326,357.444,279.08z"/>
	</g>
	<g>
		<g>
			<path fill="#FFFFFF" d="M353.438,283.937c0,0,4.199-7.781,1.423-12.735c-4.219-7.487-13.375-19.878-24.025-31.356
				c-2.559-2.761-34.093-32.363-34.093-32.363l-31.283-31.561c0,0-5.319-7.692-19.832-8.039c-8.918-0.214-46.543,0.315-46.543,0.315
				s-8.51,0.832-5.438-3.064c3.466-4.396,7.097-7.988,11.929-12.284c3.073-2.735,15.315-11.824,5.401-9.39
				c-6.484,1.593-17.229,10.743-29.106,24.693l-35.273,1.377c0,0-13.594-1.679-21.3,8.387
				c-10.149,13.282-19.462,34.794-19.462,34.794l24.417-30.998l5.938,19.575l92.119,0.402l12.386-18.177
				c0,0,10.399-0.604,22.049,25.964c3.688,8.446,4.219,5.808,27.469,22.974C313.495,249.634,353.438,283.937,353.438,283.937z"/>
			<path fill="#0B1437" d="M101.216,220.016l27.701-41.737c0,0,3.213-4.475,4.883,0.371c1.663,4.847,12.682,44.429,13.023,47.12
				c0,0,1.33,8.885-3.018,0.81c-4.329-8.076-12.673-26.117-14.02-33.119c0,0-1.667-7.811-4.329-0.54c0,0-18.69,31.237-22.697,35.813
				c-4.006,4.58-7.348,9.155-6.016,4.04C98.08,227.654,101.216,220.016,101.216,220.016z"/>
		</g>
		<g>
			<path fill="#0B1437" d="M213.247,220.657c5.699-7.771,10.344-20.733,25.698-41.738c2.397-3.278,3.833-4.223,7.684-0.269
				c14.68,15.081,32.869,55.871,32.367,59.506c0,0,0.684,7.271-2.997,3.499c-6.748-6.917-23.035-47.656-29.372-53.583
				c0,0-3.678-1.879-8.342,5.927c0,0-18.702,30.157-22.702,34.735c-4.006,4.58-7.345,9.155-6.01,4.04
				C210.901,227.654,212.21,222.062,213.247,220.657z"/>
		</g>
		<g>
			<polygon fill="#0B1437" points="137.806,204.226 137.133,200.46 229.938,198.846 226.591,203.151 			"/>
		</g>
	</g>
	<g>
		<path fill="#0B1437" d="M113.767,282.312c6.684-0.531,2.004,3.239,2.004,3.239c-8.009,4.839-10.721,19.382-11.342,26.377
			c-0.651,7.275-1.056,16.954-1.056,16.954s-15.514-3.36-29.709-8.865c-3.438-1.333-12.996-1.865-18.191,1.96
			c-3.55,2.633-7.121,10.958-5.116,23.35c1.992,12.38,8.017,2.675,8.017,2.675c10.684,13.47,36.035,45.788,52.056,64.103
			c14.329,16.37,30.889,19.081,36.73,21.533c11.939,5.025,45.393,8.086,66.762,5.929c17.226-1.747,29.367-5.929,34.696-10.235
			c5.343-4.311,48.751-23.701,60.76-38.775c12.02-15.074,6.678-29.078,2.671-40.921c-3.996-11.852-19.368-11.312-19.368-11.312
			c-22.027,0.529-77.431-5.926-77.431-5.926c-0.673-2.156-4.67-9.697-14.692-15.073c-10.011-5.396-3.994,4.839-3.994,4.839
			c-0.671,0,8.675,12.387,8.675,12.387s-11.352,6.465-14.02,6.994c-2.677,0.549-10.021-1.066-22.71,4.311
			c-12.671,5.388-22.692,4.31-32.031,5.388c-9.354,1.084-17.43,0.51-21.416-5.388c-2.715-4.043-8.422-7.057-5.964-29.617
			c1.991-18.359,3.02-19.903,5.355-23.683c2.44-3.981,9.298-8.61,22.68-15.624c16.322-8.554,24.704-20.468,24.704-20.468
			c-2.004,2.164-14.679,10.234-14.679,10.234l-8.69-23.156l-13.348-32.313c-5.343,2.154-12.013,9.693-15.35,18.85
			c-3.337,9.149-11.515,29.386-17.354,42.005c-4.496,10.427-6.69,12.564-7.345,13.183
			C89.014,284.11,105.771,282.649,113.767,282.312z"/>
	</g>
	<g>
		<path fill="#0B1437" d="M200.556,286.62c0,0,21.362-27.992,24.042-34.996c2.666-7.004,11.341-30.703,19.358-36.623
			c0,0,5.343-3.233,8.678-0.537c3.332,2.688,19.356,21.54,26.702,42c7.346,20.469,12.055,45.286,22.062,59.282
			c0,0-40.827-17.934-53.447-21.321C226.725,288.72,200.556,286.62,200.556,286.62z"/>
	</g>
	<g>
		<path fill="#FFFFFF" d="M135.803,248.393c-1.991-5.797-12.687-31.243-12.687-31.243c-5.999,5.387-29.36,60.303-30.703,63.526
			l25.92-2.395c-0.084-3.385,1.459-15.975,5.965-18.85l9.501,0.508l-2.706-8.068C132.093,250.246,134.299,248.831,135.803,248.393z"
			/>
	</g>
	<path fill="#FFFFFF" d="M272.309,255.339c-4.979-18.312-23.69-37.107-23.69-37.107c-10.673,6.459-20.024,37.156-21.353,40.396
		c-1.329,3.222-17.381,25.288-17.381,25.288s10.368,0.823,18.709,2.146c7.868,1.252,24.71,5.928,24.71,5.928
		c-2.312-4.155-0.544-19.933,4.877-24.333l12.1,0.894l-6.633-7.634C264.407,259.825,265.674,257.068,272.309,255.339z"/>
	<g>
		<path fill="#FFFFFF" d="M277.333,348.021c0,0,19.355-0.546,21.37-1.085c0,0,9.348-1.609,10.003,4.848
			c0.67,6.464,2.707,23.685-1.29,30.147c0,0,4.631,4.319-32.087,26.403c-36.717,22.075-40.045,26.387-66.753,27.465
			c-26.708,1.068-55.416-3.772-60.758-5.926c0,0-21.642-8.664-35.386-22.623c-18.026-18.306-26.707-33.381-52.74-65.153
			c-3.041-3.708-0.426-12.602,2.003-14.007c2.927-1.697,8.963,0.174,14.022,2.155c4.245,1.662,28.709,8.081,28.709,8.61
			c0,0.548,3.995,10.234,10.678,14.005c6.676,3.769,25.365,11.851,55.405,3.23c0,0,12.013-7.53,28.042-9.155
			c2.139-0.76,8.714-3.167,12.688-7.187C214.4,345.283,254.301,348.204,277.333,348.021z"/>
	</g>
	<g>
		<path fill="#0B1437" d="M86.399,371.438c0,7.252-6.337-28.54-3.673-35.004c0,0,2.675,8.078,3.337,17.239
			C86.74,362.828,86.399,369.824,86.399,371.438z"/>
	</g>
	<g>
		<g>
			<path fill="#0B1437" d="M117.773,403.486c0,7.249-10.678-30.97-6.674-44.162c0,0,2.668,8.077,3.342,17.237
				C115.106,385.711,117.773,401.872,117.773,403.486z"/>
		</g>
	</g>
	<g>
		<g>
			<g>
				<path fill="#0B1437" d="M151.915,414.682c0.688,8.062-8.991-29.088-4.746-51.049c0,0,2.32,14.883,2.582,24.048
					C150.019,396.85,151.774,413.075,151.915,414.682z"/>
			</g>
		</g>
	</g>
	<g>
		<g>
			<g>
				<path fill="#0B1437" d="M195.89,422.597c0,7.247-10.348-37.688-6.34-50.884c0,0,2.664,8.078,3.339,17.229
					C193.545,398.099,195.89,420.99,195.89,422.597z"/>
			</g>
		</g>
	</g>
	<g>
		<path fill="#0B1437" d="M276.991,371.979c0,7.248-5.659-11.578-2.997-18.041c0,0,2-8.884,2.67,0.274
			C277.333,363.359,276.991,370.359,276.991,371.979z"/>
	</g>
	<path fill="#0B1437" d="M167.18,355.553c0,0,43.723,5.388,56.41,4.848c0,0,2.677-1.075,3.338,4.311
		c0.667,5.377,5.674,34.742,7.011,38.502c1.345,3.772-2.619-36.4-3.678-39.041c-1.455-3.644,3.021-4.044,3.021-4.312
		c0,0,38.707-4.847,45.386-7.265c6.68-2.432,17.022-6.739,18.701-7.27l-13.686,1.609c0,0-39.389,9.587-55.747,9.815
		c-19.388,0.274-43.39-2.11-55.903-4.848L167.18,355.553z"/>
	<path fill="#010101" d="M273.325,224.153"/>
	<path fill="#0B1437" d="M269.988,222.539c0,0,42.061,27.47,59.423,47.933c0,0,14.678,33.927,20.022,39.843c0,0,4.006,8.088,4.688,0
		c0.656-8.071-0.682-26.376-0.682-26.376s-86.79-77.016-92.132-78.093L269.988,222.539z"/>
	<g>
		<path fill="#0B1437" d="M364.121,299.011c1.598-10.526,18.029-20.998,24.7-23.696c0,0,9.358-3.768,4.676,4.312
			c-4.676,8.071-5.341,6.463-5.341,6.463s10.682,20.463,10.023,25.31c-0.677,4.838-5.342,13.995-17.372,3.222
			c0,0,6.012,3.232,10.029-0.527c3.994-3.781-6.023-18.591-6.023-23.165c0-0.541-8.667,5.925-10.683,15.623
			C374.128,306.552,360.785,321.097,364.121,299.011z"/>
	</g>
	<g>
		<path fill="#EC2135" d="M338.748,54.52c0,0,3.463-11.292,14.048-15.764c10.41-4.401,10.489-4.566,10.489-4.566l10.843,13.327
			l-6.168-15.209l6.508-2.696l6.679,7.136L378.643,28l17.194-7.41l22.354,26.657l-14.648,8.66c0,0,13.65-4.62,17.67-4.89
			l3.509,3.902l-16.854,9.319c0,0,16.515-4.357,20.521-4.876l2.955,3.569l-5.138,16.098l-22.347,12.144l20.668-6.09l-4.98,17.499
			l-22.39,14.136c0,0,21.029-9.147,21.029-8.616c0,0.534-21.357,15.345-21.357,15.345l19.209-9.157l-2.991,9.966l-10.876,8.888
			l8.875-2.567l-7.337,24.908c0,0-34.248,19.131-34.248,19.662c0,0.533,8.684-2.688,11.015-3.768c0,0-3.329,4.032-3.329,3.497
			c0-0.529,13.345-3.497,13.345-3.497s-20.689,12.378-20.689,11.847c0-0.534,27.693-11.043,27.693-11.043s-3.916,9.737-6.917,14.581
			c-2.953,4.748-13.217,16.719-13.217,16.719l-20.931,6.939l15.191-0.539l-2.505,2.961l-12.346,3.234l10.187-1.078l-15.881,17.22
			c0,0-12.991-17.49-11.996-21.532c0,0,4.347-14.541,3-19.926c0,0-3,10.236-7.006,12.654l-29.032-43.889L338.748,54.52z"/>
	</g>
	<line fill="none" x1="385.153" y1="55.327" x2="383.149" y2="54.52"/>
	<g>
		<g>
			<path fill="#0B1437" d="M325.741,142.566c0,0,0,10.235,7.661,15.349C333.402,157.915,330.079,144.45,325.741,142.566z"/>
		</g>
		<g>
			<path fill="#0B1437" d="M329.411,128.834c0,0,2.669,13.192,10.347,18.312C339.758,147.145,333.744,130.719,329.411,128.834z"/>
		</g>
	</g>
	<g>
		<g>
			<path fill="#0B1437" d="M341.759,80.638c0,0,8.015,24.773,15.686,29.886C357.444,110.524,346.094,82.521,341.759,80.638z"/>
		</g>
	</g>
	<g>
		<g>
			<path fill="#0B1437" d="M366.465,44.827c0,0-1.005,6.19,4.666,10.5C371.131,55.327,369.465,46.978,366.465,44.827z"/>
		</g>
	</g>
	<g>
		<path fill="#0B1437" d="M383.149,53.705c-0.678,1.084-30.705,96.941-34.06,114.713c0,0,33.061-97.206,36.062-113.092
			L383.149,53.705z"/>
	</g>
	<path fill="#0B1437" d="M344.429,183.497c0,0,0.342-5.655,2.671-8.079C347.1,175.415,347.1,179.996,344.429,183.497z"/>
	<g>
		<path fill="#0B1437" d="M361.126,160.34c-8.987,1.646,34.032-17.774,41.38-17.502C402.506,142.836,368.458,158.991,361.126,160.34
			z"/>
	</g>
	<g>
		<path fill="#0B1437" d="M381.338,84.103c-8.985,1.648,34.047-17.772,41.395-17.502C422.732,66.6,388.684,82.754,381.338,84.103z"
			/>
	</g>
	<g>
		<path fill="#0B1437" d="M386.998,112.435c-4.484,0.822,17.034-8.883,20.691-8.751
			C407.689,103.684,390.663,111.765,386.998,112.435z"/>
	</g>
	<g>
		<path fill="#0B1437" d="M277.242,382.736c0.67,0,3.963,6.379,3.963,7.977s-2.639,5.854-2.639,5.854l-1.979-5.321L277.242,382.736z
			"/>
	</g>
	<path fill="#EC2135" d="M176.826,352.706c0,0,11.07-4.781,19.683-5.653c7.074-0.712,14.89-7.485,14.89-7.485
		s-0.425,3.634,24.587,6.235c25.013,2.593,43.146,2.154,43.146,2.154s-30.605,8.118-52.916,8.968
		C205.175,357.725,179.805,353.499,176.826,352.706z"/>
</g>
</svg>
