<?xml version="1.0" encoding="UTF-8" standalone="no"?>
<!DOCTYPE svg PUBLIC "-//W3C//DTD SVG 1.1//EN"
 "http://www.w3.org/Graphics/SVG/1.1/DTD/svg11.dtd">
<!-- Generated by graphviz version 2.38.0 (20140413.2041)
 -->
<!-- Title: ee8285e Pages: 1 -->
<svg width="291pt" height="332pt"
 viewBox="0.00 0.00 290.51 332.00" xmlns="http://www.w3.org/2000/svg" xmlns:xlink="http://www.w3.org/1999/xlink">
<g id="graph0" class="graph" transform="scale(1 1) rotate(0) translate(4 328)">
<title>ee8285e</title>
<polygon fill="white" stroke="none" points="-4,4 -4,-328 286.511,-328 286.511,4 -4,4"/>
<!-- commit: ee8285e -->
<g id="node1" class="node"><title>commit: ee8285e</title>
<ellipse fill="#ff851b" stroke="#ff851b" cx="178.255" cy="-306" rx="89.9224" ry="18"/>
<text text-anchor="middle" x="178.255" y="-301.8" font-family="Courier,monospace" font-size="14.00">commit: ee8285e</text>
</g>
<!-- tree: 7e367cc -->
<g id="node2" class="node"><title>tree: 7e367cc</title>
<ellipse fill="#ffdc00" stroke="#ffdc00" cx="178.255" cy="-234" rx="79.1943" ry="18"/>
<text text-anchor="middle" x="178.255" y="-229.8" font-family="Courier,monospace" font-size="14.00">tree: 7e367cc</text>
</g>
<!-- commit: ee8285e&#45;&gt;tree: 7e367cc -->
<g id="edge1" class="edge"><title>commit: ee8285e&#45;&gt;tree: 7e367cc</title>
<path fill="none" stroke="black" d="M178.255,-277.665C178.255,-269.054 178.255,-259.791 178.255,-252.104"/>
<polygon fill="black" stroke="black" points="174.756,-277.697 178.255,-287.697 181.756,-277.697 174.756,-277.697"/>
</g>
<!-- tree: A -->
<g id="node3" class="node"><title>tree: A</title>
<ellipse fill="#ffdc00" stroke="#ffdc00" cx="122.255" cy="-162" rx="47.0121" ry="18"/>
<text text-anchor="middle" x="122.255" y="-157.8" font-family="Courier,monospace" font-size="14.00">tree: A</text>
</g>
<!-- tree: 7e367cc&#45;&gt;tree: A -->
<g id="edge2" class="edge"><title>tree: 7e367cc&#45;&gt;tree: A</title>
<path fill="none" stroke="black" d="M158.275,-208.025C150.637,-198.477 142.129,-187.842 135.301,-179.307"/>
<polygon fill="black" stroke="black" points="155.719,-210.433 164.699,-216.055 161.185,-206.06 155.719,-210.433"/>
</g>
<!-- file: B -->
<g id="node7" class="node"><title>file: B</title>
<ellipse fill="#2ecc40" stroke="#2ecc40" cx="235.255" cy="-162" rx="47.0121" ry="18"/>
<text text-anchor="middle" x="235.255" y="-157.8" font-family="Courier,monospace" font-size="14.00">file: B</text>
</g>
<!-- tree: 7e367cc&#45;&gt;file: B -->
<g id="edge7" class="edge"><title>tree: 7e367cc&#45;&gt;file: B</title>
<path fill="none" stroke="black" d="M198.593,-208.025C206.367,-198.477 215.027,-187.842 221.977,-179.307"/>
<polygon fill="black" stroke="black" points="195.654,-206.091 192.054,-216.055 201.082,-210.511 195.654,-206.091"/>
</g>
<!-- file: a -->
<g id="node5" class="node"><title>file: a</title>
<ellipse fill="#2ecc40" stroke="#2ecc40" cx="47.2554" cy="-90" rx="47.0121" ry="18"/>
<text text-anchor="middle" x="47.2554" y="-85.8" font-family="Courier,monospace" font-size="14.00">file: a</text>
</g>
<!-- tree: A&#45;&gt;file: a -->
<g id="edge3" class="edge"><title>tree: A&#45;&gt;file: a</title>
<path fill="none" stroke="black" d="M97.6246,-138.011C86.6801,-127.796 74.0712,-116.028 64.2067,-106.821"/>
<polygon fill="black" stroke="black" points="95.5381,-140.851 105.237,-145.116 100.314,-135.734 95.5381,-140.851"/>
</g>
<!-- file: b -->
<g id="node6" class="node"><title>file: b</title>
<ellipse fill="#2ecc40" stroke="#2ecc40" cx="160.255" cy="-90" rx="47.0121" ry="18"/>
<text text-anchor="middle" x="160.255" y="-85.8" font-family="Courier,monospace" font-size="14.00">file: b</text>
</g>
<!-- tree: A&#45;&gt;file: b -->
<g id="edge5" class="edge"><title>tree: A&#45;&gt;file: b</title>
<path fill="none" stroke="black" d="M136.369,-135.002C141.308,-125.903 146.72,-115.934 151.141,-107.789"/>
<polygon fill="black" stroke="black" points="133.149,-133.597 131.454,-144.055 139.301,-136.936 133.149,-133.597"/>
</g>
<!-- blob: e69de29 -->
<g id="node4" class="node"><title>blob: e69de29</title>
<ellipse fill="#7fdbff" stroke="#7fdbff" cx="160.255" cy="-18" rx="79.1943" ry="18"/>
<text text-anchor="middle" x="160.255" y="-13.8" font-family="Courier,monospace" font-size="14.00">blob: e69de29</text>
</g>
<!-- file: a&#45;&gt;blob: e69de29 -->
<g id="edge4" class="edge"><title>file: a&#45;&gt;blob: e69de29</title>
<path fill="none" stroke="black" d="M79.6163,-68.9534C96.9365,-58.2241 117.984,-45.1859 134.232,-35.1205"/>
<polygon fill="black" stroke="black" points="77.6018,-66.0842 70.9439,-74.3257 81.2882,-72.0349 77.6018,-66.0842"/>
</g>
<!-- file: b&#45;&gt;blob: e69de29 -->
<g id="edge6" class="edge"><title>file: b&#45;&gt;blob: e69de29</title>
<path fill="none" stroke="black" d="M160.255,-61.6651C160.255,-53.0537 160.255,-43.7913 160.255,-36.1043"/>
<polygon fill="black" stroke="black" points="156.756,-61.6966 160.255,-71.6966 163.756,-61.6967 156.756,-61.6966"/>
</g>
<!-- file: B&#45;&gt;blob: e69de29 -->
<g id="edge8" class="edge"><title>file: B&#45;&gt;blob: e69de29</title>
<path fill="none" stroke="black" d="M233.667,-133.794C231.613,-115.364 226.925,-91.0018 216.255,-72 208.194,-57.6434 194.952,-44.8475 183.368,-35.4269"/>
<polygon fill="black" stroke="black" points="230.193,-134.239 234.598,-143.874 237.164,-133.595 230.193,-134.239"/>
</g>
</g>
</svg>
