<?xml version="1.0" encoding="UTF-8" standalone="no"?>
<!DOCTYPE svg PUBLIC "-//W3C//DTD SVG 1.1//EN"
 "http://www.w3.org/Graphics/SVG/1.1/DTD/svg11.dtd">
<!-- Generated by graphviz version 2.38.0 (20140413.2041)
 -->
<!-- Title: G Pages: 1 -->
<svg width="301pt" height="347pt"
 viewBox="0.00 0.00 300.50 346.91" xmlns="http://www.w3.org/2000/svg" xmlns:xlink="http://www.w3.org/1999/xlink">
<g id="graph0" class="graph" transform="scale(1 1) rotate(0) translate(4 342.912)">
<title>ee8285e</title>
<polygon fill="white" stroke="none" points="-4,4 -4,-342.912 296.501,-342.912 296.501,4 -4,4"/>
<!-- commit: ee8285e -->
<g id="node1" class="node"><title>commit: ee8285e</title>
<ellipse fill="#ff851b" stroke="#ff851b" cx="176.255" cy="-320.912" rx="89.9224" ry="18"/>
<text text-anchor="middle" x="176.255" y="-316.712" font-family="Courier,monospace" font-size="14.00">commit: ee8285e</text>
</g>
<!-- commit&#45;tree: 7e367cc -->
<g id="node2" class="node"><title>commit&#45;tree: 7e367cc</title>
<ellipse fill="#ffdc00" stroke="#ffdc00" cx="176.255" cy="-248.912" rx="116.492" ry="18"/>
<text text-anchor="middle" x="176.255" y="-244.712" font-family="Courier,monospace" font-size="14.00">commit&#45;tree: 7e367cc</text>
</g>
<!-- commit: ee8285e&#45;&gt;commit&#45;tree: 7e367cc -->
<g id="edge1" class="edge"><title>commit: ee8285e&#45;&gt;commit&#45;tree: 7e367cc</title>
<path fill="none" stroke="black" d="M176.255,-292.577C176.255,-283.965 176.255,-274.703 176.255,-267.016"/>
<polygon fill="black" stroke="black" points="172.756,-292.608 176.255,-302.608 179.756,-292.608 172.756,-292.608"/>
</g>
<!-- tree: A
296e560 -->
<g id="node3" class="node"><title>tree: A
296e560</title>
<ellipse fill="#ffdc00" stroke="#ffdc00" cx="117.255" cy="-169.456" rx="52.7969" ry="25.4118"/>
<text text-anchor="middle" x="117.255" y="-172.256" font-family="Courier,monospace" font-size="14.00">tree: A</text>
<text text-anchor="middle" x="117.255" y="-158.256" font-family="Courier,monospace" font-size="14.00">296e560</text>
</g>
<!-- commit&#45;tree: 7e367cc&#45;&gt;tree: A
296e560 -->
<g id="edge2" class="edge"><title>commit&#45;tree: 7e367cc&#45;&gt;tree: A
296e560</title>
<path fill="none" stroke="black" d="M156.922,-222.531C149.79,-213.167 141.754,-202.618 134.79,-193.476"/>
<polygon fill="black" stroke="black" points="154.318,-224.888 163.161,-230.722 159.886,-220.646 154.318,-224.888"/>
</g>
<!-- file: B -->
<g id="node7" class="node"><title>file: B</title>
<ellipse fill="#2ecc40" stroke="#2ecc40" cx="235.255" cy="-169.456" rx="47.0121" ry="18"/>
<text text-anchor="middle" x="235.255" y="-165.256" font-family="Courier,monospace" font-size="14.00">file: B</text>
</g>
<!-- commit&#45;tree: 7e367cc&#45;&gt;file: B -->
<g id="edge7" class="edge"><title>commit&#45;tree: 7e367cc&#45;&gt;file: B</title>
<path fill="none" stroke="black" d="M195.518,-222.624C204.408,-210.953 214.714,-197.422 222.603,-187.066"/>
<polygon fill="black" stroke="black" points="192.625,-220.646 189.349,-230.722 198.193,-224.888 192.625,-220.646"/>
</g>
<!-- file: a -->
<g id="node5" class="node"><title>file: a</title>
<ellipse fill="#2ecc40" stroke="#2ecc40" cx="47.2554" cy="-90" rx="47.0121" ry="18"/>
<text text-anchor="middle" x="47.2554" y="-85.8" font-family="Courier,monospace" font-size="14.00">file: a</text>
</g>
<!-- tree: A
296e560&#45;&gt;file: a -->
<g id="edge3" class="edge"><title>tree: A
296e560&#45;&gt;file: a</title>
<path fill="none" stroke="black" d="M89.8841,-138.169C80.3663,-127.638 70.0574,-116.231 61.9617,-107.273"/>
<polygon fill="black" stroke="black" points="87.33,-140.563 96.6317,-145.635 92.5234,-135.87 87.33,-140.563"/>
</g>
<!-- file: b -->
<g id="node6" class="node"><title>file: b</title>
<ellipse fill="#2ecc40" stroke="#2ecc40" cx="160.255" cy="-90" rx="47.0121" ry="18"/>
<text text-anchor="middle" x="160.255" y="-85.8" font-family="Courier,monospace" font-size="14.00">file: b</text>
</g>
<!-- tree: A
296e560&#45;&gt;file: b -->
<g id="edge5" class="edge"><title>tree: A
296e560&#45;&gt;file: b</title>
<path fill="none" stroke="black" d="M135.376,-135.816C140.713,-126.202 146.335,-116.075 150.882,-107.884"/>
<polygon fill="black" stroke="black" points="132.184,-134.354 130.39,-144.796 138.304,-137.751 132.184,-134.354"/>
</g>
<!-- blob: e69de29 -->
<g id="node4" class="node"><title>blob: e69de29</title>
<ellipse fill="#7fdbff" stroke="#7fdbff" cx="160.255" cy="-18" rx="79.1943" ry="18"/>
<text text-anchor="middle" x="160.255" y="-13.8" font-family="Courier,monospace" font-size="14.00">blob: e69de29</text>
</g>
<!-- file: a&#45;&gt;blob: e69de29 -->
<g id="edge4" class="edge"><title>file: a&#45;&gt;blob: e69de29</title>
<path fill="none" stroke="black" d="M79.6163,-68.9534C96.9365,-58.2241 117.984,-45.1859 134.232,-35.1205"/>
<polygon fill="black" stroke="black" points="77.6018,-66.0842 70.9439,-74.3257 81.2882,-72.0349 77.6018,-66.0842"/>
</g>
<!-- file: b&#45;&gt;blob: e69de29 -->
<g id="edge6" class="edge"><title>file: b&#45;&gt;blob: e69de29</title>
<path fill="none" stroke="black" d="M160.255,-61.6651C160.255,-53.0537 160.255,-43.7913 160.255,-36.1043"/>
<polygon fill="black" stroke="black" points="156.756,-61.6966 160.255,-71.6966 163.756,-61.6967 156.756,-61.6966"/>
</g>
<!-- file: B&#45;&gt;blob: e69de29 -->
<g id="edge8" class="edge"><title>file: B&#45;&gt;blob: e69de29</title>
<path fill="none" stroke="black" d="M234.313,-141.268C232.6,-121.065 228.057,-93.4133 216.255,-72 208.308,-57.58 195.07,-44.7817 183.46,-35.3755"/>
<polygon fill="black" stroke="black" points="230.828,-141.616 234.988,-151.36 237.812,-141.149 230.828,-141.616"/>
</g>
</g>
</svg>
